<svg xmlns="http://www.w3.org/2000/svg" viewBox="0 0 600 600"><g style="stroke-width:1.05103"><path d="M573.781 71.326A42.041 42.041 0 0 0 544.06 83.65L269.178 358.697 201.88 226.174c-16.413-16.423-43.032-16.43-59.455-.017-16.423 16.413-16.43 43.032-.018 59.455l97.034 162.277c16.421 16.427 43.052 16.427 59.473 0l304.617-304.801c16.415-16.423 16.407-43.044-.017-59.457a42.041 42.041 0 0 0-29.733-12.305zM297.416-12.826c-80.509.86-159.959 32.451-219.775 92.322C-23.103 180.331-43.683 336.824 27.547 460.311c71.23 123.486 216.987 183.925 354.627 147.011 137.64-36.914 233.65-162.171 233.65-304.748 0-23.218-18.822-42.04-42.04-42.04-23.22-.002-42.044 18.82-42.044 42.04 0 104.961-70.101 196.382-171.347 223.535-101.247 27.154-207.586-16.923-260.012-107.81-52.427-90.888-37.391-205.173 36.742-279.373 74.133-74.2 188.236-89.233 279.02-36.772 20.103 11.617 45.818 4.737 57.435-15.367 11.616-20.103 4.737-45.816-15.365-57.433C408.083.384 352.5-13.415 297.416-12.826Z" style="color:#84cc16;fill:#84cc16;stroke-linecap:round;stroke-linejoin:round;-inkscape-stroke:none" transform="matrix(.95173 0 0 .95116 13.901 12.169)"/></g></svg>